<?xml version="1.0" encoding="UTF-8"?>
<svg version="1.1" xmlns="http://www.w3.org/2000/svg" width="512" height="512">
<path d="M0 0 C1.77398918 -0.01052147 1.77398918 -0.01052147 3.58381653 -0.02125549 C7.3827398 -0.03866769 11.18150703 -0.04510865 14.98046875 -0.046875 C16.28030701 -0.04754974 17.58014526 -0.04822449 18.91937256 -0.04891968 C38.54028999 -0.03273654 57.71881455 0.4954872 77.16796875 3.203125 C78.42899414 3.36941406 79.69001953 3.53570312 80.98925781 3.70703125 C96.92421945 5.84170733 112.65027184 8.77834923 128.35546875 12.203125 C129.48305603 12.44523209 129.48305603 12.44523209 130.63342285 12.69223022 C151.41373202 17.19059161 169.55642548 24.4424316 182.42578125 42.34375 C189.44356523 53.27181215 196.73363854 68.7126677 194.16796875 82.203125 C192.7734375 83.95703125 192.7734375 83.95703125 191.16796875 85.203125 C190.50796875 85.203125 189.84796875 85.203125 189.16796875 85.203125 C189.16796875 98.073125 189.16796875 110.943125 189.16796875 124.203125 C190.48796875 124.533125 191.80796875 124.863125 193.16796875 125.203125 C194.84929151 128.56577051 194.31591626 132.36900289 194.31513977 136.06765747 C194.31881646 136.99729431 194.32249315 137.92693115 194.32628125 138.8847388 C194.33734982 142.01968162 194.34116742 145.15459132 194.3449707 148.28955078 C194.35123337 150.52986762 194.35787999 152.77018341 194.36488342 155.01049805 C194.3823209 161.11456142 194.39285443 167.21861694 194.40108895 173.32269907 C194.40623733 177.13904233 194.41231339 180.95538316 194.41860008 184.7717247 C194.43548013 195.34888736 194.45011062 205.92604786 194.45734882 216.50322151 C194.45925861 219.24938076 194.46117894 221.99554 194.46313477 224.74169922 C194.46361851 225.42421265 194.46410225 226.10672607 194.46460065 226.80992173 C194.47288009 237.83739845 194.4981772 248.86476596 194.53071544 259.89219512 C194.56389061 271.22862641 194.58147541 282.56498299 194.58499306 293.90147007 C194.58733776 300.26022361 194.5962214 306.61880496 194.62145424 312.97751236 C194.64485074 318.97097724 194.64892172 324.96415803 194.63869286 330.95765686 C194.63820006 333.1472506 194.64444408 335.33685887 194.6582489 337.52640915 C194.79208213 360.02928598 191.31498655 379.26906702 175.16796875 396.203125 C168.78552207 402.20299812 162.21149012 406.73097586 154.16796875 410.203125 C160.72356566 419.09291172 167.70167981 427.63482886 174.66796875 436.203125 C176.33792343 438.25814204 178.00772774 440.31328082 179.67724609 442.36865234 C180.9504373 443.93543236 182.22507043 445.50104046 183.5 447.06640625 C185.41078599 449.42944928 187.29815561 451.80755045 189.16796875 454.203125 C189.89113281 455.12867188 190.61429687 456.05421875 191.359375 457.0078125 C196.46040734 463.74227023 199.73938895 469.28495942 199.484375 478.0234375 C198.48124539 484.93388589 195.61487875 490.79372167 190.16796875 495.203125 C182.60301278 500.64989329 176.33877629 500.91641003 167.16796875 500.203125 C157.35320545 497.60877674 151.39652685 488.38412709 145.52099609 480.76708984 C141.6821605 475.79786441 137.66360208 471.00866647 133.52050781 466.29052734 C130.16796875 462.41607286 130.16796875 462.41607286 130.16796875 460.203125 C58.88796875 460.203125 -12.39203125 460.203125 -85.83203125 460.203125 C-86.49203125 461.523125 -87.15203125 462.843125 -87.83203125 464.203125 C-88.77620631 465.47184445 -89.7597685 466.71186579 -90.7734375 467.92578125 C-91.35279053 468.62405029 -91.93214355 469.32231934 -92.52905273 470.04174805 C-93.4524646 471.14256714 -93.4524646 471.14256714 -94.39453125 472.265625 C-95.66830497 473.79399068 -96.94174244 475.32263667 -98.21484375 476.8515625 C-99.14538574 477.9667627 -99.14538574 477.9667627 -100.09472656 479.10449219 C-101.58673269 480.90680876 -103.05720425 482.72211242 -104.51171875 484.5546875 C-114.96664403 497.68665248 -114.96664403 497.68665248 -122.83203125 500.203125 C-130.81417513 501.02327359 -138.21328668 501.13094943 -144.83203125 496.203125 C-149.58229279 492.20858689 -154.0603582 486.56942767 -154.83203125 480.203125 C-155.6040403 468.81599152 -151.61777124 462.30281265 -144.24755859 453.8515625 C-141.51788227 450.67274661 -138.90347746 447.3987705 -136.26953125 444.140625 C-135.14462387 442.75513313 -134.01962597 441.36971475 -132.89453125 439.984375 C-129.18486386 435.40821596 -125.50461416 430.80907152 -121.83203125 426.203125 C-119.66613859 423.49417231 -117.4990449 420.78618099 -115.33203125 418.078125 C-114.27992883 416.76303611 -113.22784391 415.4479332 -112.17578125 414.1328125 C-111.40234375 413.16601562 -110.62890625 412.19921875 -109.83203125 411.203125 C-112.59401713 409.04650589 -115.39858449 407.28168981 -118.45703125 405.578125 C-127.95473896 399.89908328 -135.10685259 392.64232981 -140.83203125 383.203125 C-141.29351562 382.44644531 -141.755 381.68976563 -142.23046875 380.91015625 C-147.84071957 370.76070249 -152.2280169 355.81308486 -149.83203125 344.203125 C-149.17203125 343.83034424 -148.51203125 343.45756348 -147.83203125 343.07348633 C-145.429339 341.22082026 -145.429339 341.22082026 -145.31445312 337.421875 C-145.28804456 335.84917344 -145.2849868 334.27596897 -145.30078125 332.703125 C-145.29695435 331.87103516 -145.29312744 331.03894531 -145.28918457 330.18164062 C-145.28646375 328.42316477 -145.29383695 326.66464856 -145.31054688 324.90625 C-145.33195574 322.21262495 -145.31075277 319.52166697 -145.28515625 316.828125 C-145.2877995 315.11978577 -145.29292442 313.41144821 -145.30078125 311.703125 C-145.29268433 310.89681641 -145.2845874 310.09050781 -145.27624512 309.25976562 C-145.27369566 306.72416109 -145.27369566 306.72416109 -145.83203125 303.203125 C-146.49223015 302.81466495 -147.15242905 302.42620489 -147.83263397 302.02597332 C-149.83203125 300.203125 -149.83203125 300.203125 -150.33539581 296.30229664 C-150.35749624 294.6204429 -150.35718861 292.93821264 -150.33996582 291.25630188 C-150.34620578 290.32989417 -150.35244575 289.40348646 -150.3588748 288.44900578 C-150.37488604 285.33073857 -150.36216812 282.21324433 -150.34960938 279.0949707 C-150.35502735 276.86435488 -150.36214818 274.63374264 -150.37084961 272.40313721 C-150.38913802 266.33003154 -150.38198898 260.2571967 -150.36933327 254.18408608 C-150.35921786 247.82406643 -150.36859641 241.46407023 -150.37487793 235.10404968 C-150.38263274 223.72228184 -150.37017083 212.34065139 -150.34984058 200.95891102 C-150.33202488 190.66745154 -150.33502552 180.37617289 -150.35351562 170.0847168 C-150.37499945 158.12147549 -150.38284438 146.15834392 -150.37106657 134.19507664 C-150.36485248 127.86766584 -150.36393698 121.54037913 -150.37721252 115.21297646 C-150.38884774 109.24982585 -150.38060595 103.28701281 -150.3576355 97.32389832 C-150.35238605 95.14560695 -150.35379686 92.96728674 -150.36268616 90.78900719 C-150.44647756 68.15200872 -146.71524496 48.38207919 -130.40234375 31.5703125 C-126.47696367 27.95514483 -122.39905878 24.95495876 -117.83203125 22.203125 C-117.13464844 21.76613281 -116.43726563 21.32914063 -115.71875 20.87890625 C-84.34474063 3.21361146 -35.3921558 0.14143189 0 0 Z M-56.55126953 421.44726562 C-57.70356069 423.6697532 -58.8006127 425.9220284 -59.83203125 428.203125 C-61.34106744 430.1621623 -62.89758987 432.08649072 -64.51953125 433.953125 C-71.56748182 441.02574205 -71.56748182 441.02574205 -75.83203125 449.203125 C-11.15203125 449.203125 53.52796875 449.203125 120.16796875 449.203125 C116.74687651 444.06836629 116.74687651 444.06836629 112.99609375 439.28515625 C112.4134375 438.58712891 111.83078125 437.88910156 111.23046875 437.16992188 C110.03823314 435.75285735 108.84553761 434.33617963 107.65234375 432.91992188 C107.06453125 432.21544922 106.47671875 431.51097656 105.87109375 430.78515625 C105.29260744 430.10255989 104.71412113 429.41996353 104.11810493 428.71668243 C102.16796875 426.203125 102.16796875 426.203125 100.54740715 423.4005661 C97.98938103 419.14244392 95.99908941 415.8351334 91.17251968 414.16925049 C87.47727156 413.7560398 83.91785506 413.6934342 80.19970703 413.74804688 C78.79598531 413.72983964 77.39231729 413.70699702 75.98873901 413.67990112 C72.19428547 413.6214472 68.40303567 413.63234899 64.6083436 413.65968132 C61.43242845 413.67602101 58.25709378 413.65772573 55.0812186 413.6394372 C47.58371425 413.59664057 40.08775543 413.60964084 32.59033203 413.65917969 C24.87497737 413.70932482 17.16359287 413.67242182 9.44859135 413.59125471 C2.80683054 413.52407697 -3.83370893 413.50782883 -10.47576344 413.53260088 C-14.43502451 413.54708299 -18.39203418 413.54358913 -22.35103989 413.49241638 C-41.54198971 412.12985888 -41.54198971 412.12985888 -56.55126953 421.44726562 Z " fill="#FDFEFE" transform="translate(233.83203125,5.796875)"/>
<path d="M0 0 C0.91419775 -0.00623996 1.8283955 -0.01247993 2.77029622 -0.01890898 C5.82882735 -0.03484365 8.88656205 -0.02223257 11.94509888 -0.00964355 C14.13987696 -0.01506452 16.3346514 -0.02218704 18.52941895 -0.03088379 C24.48817913 -0.04912504 30.4466624 -0.04204556 36.40542746 -0.02936745 C42.64238323 -0.01924148 48.87931527 -0.02863225 55.11627197 -0.03491211 C66.26357677 -0.04265702 77.41077995 -0.03022229 88.55806042 -0.00987476 C98.65588569 0.00798701 108.75352695 0.00489895 118.85134888 -0.0135498 C130.5863732 -0.03497979 142.32129016 -0.04291057 154.05633175 -0.03110075 C160.26495411 -0.02486842 166.47344986 -0.02402293 172.68206406 -0.0372467 C178.52129583 -0.04881467 184.36018078 -0.0407617 190.19937515 -0.01766968 C192.34071528 -0.01238722 194.48208466 -0.0138884 196.62341309 -0.02272034 C199.55027812 -0.03367773 202.47603715 -0.01990923 205.40283203 0 C206.247009 -0.00892289 207.09118597 -0.01784577 207.96094406 -0.02703905 C213.66639402 0.048056 218.1533862 1.11769114 222.82839966 4.50793457 C226.68571819 8.87216113 227.32954472 12.08196154 227.33633423 17.82603455 C227.34257419 18.5408438 227.34881415 19.25565305 227.35524321 19.99212319 C227.37113722 22.37590781 227.35858387 24.75866472 227.34597778 27.14245605 C227.35140058 28.85610549 227.35852412 30.56975027 227.36721802 32.28338623 C227.38543702 36.93016347 227.37838938 41.57658504 227.36570168 46.22336841 C227.355565 51.09012981 227.36496936 55.95686104 227.37124634 60.82362366 C227.37852149 68.9971767 227.36893923 77.17058513 227.34988403 85.34411621 C227.32812283 94.78727105 227.33516173 104.23008033 227.35718966 113.67322677 C227.37535611 121.78637121 227.37789566 129.89941176 227.36743498 138.01256996 C227.36120597 142.85574732 227.36034799 147.69876239 227.37358093 152.54192924 C227.38515667 157.09667972 227.37708229 161.65098588 227.35400391 166.20568848 C227.3487257 167.87496771 227.35021539 169.54428449 227.35905457 171.21354866 C227.37002963 173.49715005 227.35622485 175.77933892 227.33633423 178.06285095 C227.33482613 179.33911567 227.33331802 180.61538038 227.33176422 181.93031979 C226.48649045 187.93802108 224.49197726 191.24496121 219.65956116 194.91368866 C215.36452093 197.0491632 211.25000514 197.0656297 206.52981567 197.01586914 C205.61405793 197.0221091 204.69830019 197.02834907 203.75479221 197.03477812 C200.69703213 197.05068805 197.64007141 197.0381115 194.58230591 197.0255127 C192.38575781 197.03093469 190.18921336 197.03805778 187.99267578 197.04675293 C182.03404184 197.06497985 176.07568511 197.05792118 170.11704636 197.04523659 C163.87962856 197.03510576 157.64223441 197.04450251 151.40481567 197.05078125 C140.25959729 197.05852337 129.1144806 197.04609691 117.96928656 197.0257439 C107.87115507 197.00787369 97.77320752 197.01097806 87.67507935 197.02941895 C75.93859932 197.05084181 64.20220887 197.05878415 52.46570873 197.04696989 C46.25657421 197.04073549 40.04756631 197.03989802 33.83843994 197.05311584 C28.00083943 197.06467485 22.16358613 197.05664723 16.3260231 197.03353882 C14.1842621 197.02825206 12.04247185 197.0297649 9.9007225 197.03858948 C6.97574909 197.04952955 4.0518864 197.03579939 1.12698364 197.01586914 C0.28057595 197.02479203 -0.56583174 197.03371491 -1.43788815 197.04290819 C-7.15886249 196.96736022 -10.56999968 196.00142899 -15.17160034 192.50793457 C-18.91163324 188.02292292 -19.67265151 183.88807814 -19.67953491 178.06285095 C-19.68577487 177.34648171 -19.69201484 176.63011247 -19.69844389 175.89203507 C-19.71430632 173.5090208 -19.70179716 171.12703908 -19.68917847 168.74401855 C-19.69460257 167.02859911 -19.70172685 165.31318432 -19.7104187 163.59777832 C-19.72861937 158.95112726 -19.72159838 154.30483234 -19.70890236 149.65817523 C-19.69875944 144.79095182 -19.70817147 139.92375845 -19.71444702 135.05653381 C-19.72171897 126.88476092 -19.71214688 118.71313275 -19.69308472 110.54138184 C-19.67130957 101.09761828 -19.67837383 91.65420008 -19.70039034 82.21044487 C-19.71854854 74.09644665 -19.72110082 65.98255232 -19.71063566 57.86854035 C-19.70440399 53.02485084 -19.70355631 48.18132362 -19.71678162 43.33764458 C-19.72834586 38.78452527 -19.72030397 34.2318509 -19.69720459 29.6787796 C-19.69192087 28.0090795 -19.69342554 26.33934187 -19.70225525 24.66965675 C-19.71320807 22.38794588 -19.69945243 20.10765524 -19.67953491 17.82603455 C-19.67802681 16.55014686 -19.67651871 15.27425917 -19.6749649 13.95970821 C-18.88734797 8.5587015 -16.53762111 5.70375184 -12.49482536 2.16468048 C-8.16377163 0.0054961 -4.77265994 -0.05018145 0 0 Z " fill="#FEFEFE" transform="translate(152.17160034179688,79.4920654296875)"/>
<path d="M0 0 C0.928125 0.28875 1.85625 0.5775 2.8125 0.875 C4.49382276 4.23764551 3.96044751 8.04087789 3.95967102 11.73953247 C3.96334771 12.66916931 3.9670244 13.59880615 3.9708125 14.5566138 C3.98188107 17.69155662 3.98569867 20.82646632 3.98950195 23.96142578 C3.99576462 26.20174262 4.00241124 28.44205841 4.00941467 30.68237305 C4.02685215 36.78643642 4.03738568 42.89049194 4.0456202 48.99457407 C4.05076858 52.81091733 4.05684464 56.62725816 4.06313133 60.4435997 C4.08001138 71.02076236 4.09464187 81.59792286 4.10188007 92.17509651 C4.10378986 94.92125576 4.10571019 97.667415 4.10766602 100.41357422 C4.10814976 101.09608765 4.1086335 101.77860107 4.1091319 102.48179673 C4.11741134 113.50927345 4.14270845 124.53664096 4.17524669 135.56407012 C4.20842186 146.90050141 4.22600666 158.23685799 4.22952431 169.57334507 C4.23186901 175.93209861 4.24075265 182.29067996 4.26598549 188.64938736 C4.28938199 194.64285224 4.29345297 200.63603303 4.28322411 206.62953186 C4.28273131 208.8191256 4.28897533 211.00873387 4.30278015 213.19828415 C4.43661338 235.70116098 0.9595178 254.94094202 -15.1875 271.875 C-21.56994668 277.87487312 -28.14397863 282.40285086 -36.1875 285.875 C-29.63190309 294.76478672 -22.65378894 303.30670386 -15.6875 311.875 C-14.01754532 313.93001704 -12.34774101 315.98515582 -10.67822266 318.04052734 C-9.40503145 319.60730736 -8.13039832 321.17291546 -6.85546875 322.73828125 C-4.94468276 325.10132428 -3.05731314 327.47942545 -1.1875 329.875 C-0.46433594 330.80054688 0.25882812 331.72609375 1.00390625 332.6796875 C6.10493859 339.41414523 9.3839202 344.95683442 9.12890625 353.6953125 C8.12577664 360.60576089 5.25941 366.46559667 -0.1875 370.875 C-7.75245597 376.32176829 -14.01669246 376.58828503 -23.1875 375.875 C-33.0022633 373.28065174 -38.9589419 364.05600209 -44.83447266 356.43896484 C-48.67330825 351.46973941 -52.69186667 346.68054147 -56.83496094 341.96240234 C-60.1875 338.08794786 -60.1875 338.08794786 -60.1875 335.875 C-131.4675 335.875 -202.7475 335.875 -276.1875 335.875 C-276.8475 337.195 -277.5075 338.515 -278.1875 339.875 C-279.13167506 341.14371945 -280.11523725 342.38374079 -281.12890625 343.59765625 C-281.70825928 344.29592529 -282.2876123 344.99419434 -282.88452148 345.71362305 C-283.80793335 346.81444214 -283.80793335 346.81444214 -284.75 347.9375 C-286.02377372 349.46586568 -287.29721119 350.99451167 -288.5703125 352.5234375 C-289.50085449 353.6386377 -289.50085449 353.6386377 -290.45019531 354.77636719 C-291.94220144 356.57868376 -293.412673 358.39398742 -294.8671875 360.2265625 C-305.32211278 373.35852748 -305.32211278 373.35852748 -313.1875 375.875 C-321.16964388 376.69514859 -328.56875543 376.80282443 -335.1875 371.875 C-339.93776154 367.88046189 -344.41582695 362.24130267 -345.1875 355.875 C-345.95950905 344.48786652 -341.97323999 337.97468765 -334.60302734 329.5234375 C-331.87335102 326.34462161 -329.25894621 323.0706455 -326.625 319.8125 C-325.50009262 318.42700813 -324.37509472 317.04158975 -323.25 315.65625 C-319.54033261 311.08009096 -315.86008291 306.48094652 -312.1875 301.875 C-310.02160734 299.16604731 -307.85451365 296.45805599 -305.6875 293.75 C-304.63539758 292.43491111 -303.58331266 291.1198082 -302.53125 289.8046875 C-301.7578125 288.83789062 -300.984375 287.87109375 -300.1875 286.875 C-302.94948588 284.71838089 -305.75405324 282.95356481 -308.8125 281.25 C-318.31020771 275.57095828 -325.46232134 268.31420481 -331.1875 258.875 C-331.64898437 258.11832031 -332.11046875 257.36164063 -332.5859375 256.58203125 C-338.03124094 246.73098229 -342.93869175 231.1360892 -340.1875 219.875 C-337.65234375 218.01953125 -337.65234375 218.01953125 -335.1875 216.875 C-330.3125 219.75 -330.3125 219.75 -329.1875 220.875 C-329.05202535 222.78970844 -328.95529131 224.70718481 -328.875 226.625 C-327.89828053 240.15108483 -322.92996961 254.13253039 -313.1875 263.875 C-295.9204076 277.94655907 -280.053047 280.33079112 -258.43725586 280.26318359 C-256.24646239 280.26725419 -254.05567098 280.2725988 -251.86488342 280.27911377 C-245.94350502 280.29273425 -240.02228427 280.2875107 -234.10090327 280.27797651 C-227.88941333 280.27035354 -221.67793642 280.27743275 -215.46644592 280.28213501 C-204.37182508 280.28793299 -193.27727365 280.2786417 -182.18266392 280.263357 C-172.14216707 280.24995237 -162.10177428 280.25228715 -152.0612793 280.26611328 C-140.3734381 280.2821435 -128.68566193 280.28812674 -116.99781138 280.27927649 C-110.82106025 280.2746104 -104.64438067 280.27394593 -98.4676342 280.28388596 C-92.66037963 280.29257956 -86.85332079 280.2864899 -81.04608727 280.26920319 C-78.92051264 280.26525132 -76.79492141 280.26634998 -74.66935349 280.27299118 C-60.82795841 280.31223637 -49.35583747 279.47154535 -36.875 273 C-36.21177734 272.67386719 -35.54855469 272.34773438 -34.86523438 272.01171875 C-22.56985452 265.77299689 -14.80590748 254.7098766 -10.1875 241.875 C-8.41760792 235.84018148 -7.90229437 230.47798307 -7.9359436 224.20819092 C-7.93297346 223.26496074 -7.93000333 222.32173056 -7.92694318 221.34991765 C-7.91933576 218.20554643 -7.92578372 215.0613638 -7.93212891 211.91699219 C-7.92937761 209.65631992 -7.92569686 207.39564863 -7.92115784 205.13497925 C-7.91305872 200.27542565 -7.91087408 195.41591802 -7.91310501 190.55635834 C-7.91593999 182.87585189 -7.90158077 175.19543727 -7.88412476 167.51495361 C-7.86095143 156.75150793 -7.84182144 145.988072 -7.82910156 135.22460938 C-7.82829119 134.54234123 -7.82748082 133.86007309 -7.8266459 133.15713015 C-7.81541112 123.4631069 -7.8101397 113.7690894 -7.80725877 104.07506052 C-7.80705478 103.39157961 -7.80685079 102.7080987 -7.80664062 102.00390625 C-7.80644069 101.32126067 -7.80624075 100.63861509 -7.80603476 99.93528327 C-7.80230388 88.55799878 -7.78300512 77.18081815 -7.75154626 65.80357099 C-7.73128872 58.16425881 -7.72898274 50.52521486 -7.73982644 42.88588667 C-7.74242639 38.14166359 -7.72846542 33.39759805 -7.70974541 28.65341568 C-7.70440617 26.44911649 -7.70594956 24.2447886 -7.71478081 22.04050064 C-7.72584307 19.03791215 -7.71253906 16.03639682 -7.69302368 13.03387451 C-7.70214834 12.15606473 -7.711273 11.27825494 -7.72067416 10.37384486 C-7.67157413 6.50796748 -7.63890749 4.51064484 -5.35512352 1.29475784 C-3.1875 -0.125 -3.1875 -0.125 0 0 Z M-246.90673828 297.11914062 C-248.05902944 299.3416282 -249.15608145 301.5939034 -250.1875 303.875 C-251.69653619 305.8340373 -253.25305862 307.75836572 -254.875 309.625 C-261.92295057 316.69761705 -261.92295057 316.69761705 -266.1875 324.875 C-201.5075 324.875 -136.8275 324.875 -70.1875 324.875 C-73.60859224 319.74024129 -73.60859224 319.74024129 -77.359375 314.95703125 C-77.94203125 314.25900391 -78.5246875 313.56097656 -79.125 312.84179688 C-80.31723561 311.42473235 -81.50993114 310.00805463 -82.703125 308.59179688 C-83.2909375 307.88732422 -83.87875 307.18285156 -84.484375 306.45703125 C-85.06286131 305.77443489 -85.64134762 305.09183853 -86.23736382 304.38855743 C-88.1875 301.875 -88.1875 301.875 -89.8080616 299.0724411 C-92.36608772 294.81431892 -94.35637934 291.5070084 -99.18294907 289.84112549 C-102.87819719 289.4279148 -106.43761369 289.3653092 -110.15576172 289.41992188 C-111.55948344 289.40171464 -112.96315146 289.37887202 -114.36672974 289.35177612 C-118.16118328 289.2933222 -121.95243308 289.30422399 -125.74712515 289.33155632 C-128.9230403 289.34789601 -132.09837497 289.32960073 -135.27425015 289.3113122 C-142.7717545 289.26851557 -150.26771332 289.28151584 -157.76513672 289.33105469 C-165.48049138 289.38119982 -173.19187588 289.34429682 -180.9068774 289.26312971 C-187.54863821 289.19595197 -194.18917768 289.17970383 -200.83123219 289.20447588 C-204.79049326 289.21895799 -208.74750293 289.21546413 -212.70650864 289.16429138 C-231.89745846 287.80173388 -231.89745846 287.80173388 -246.90673828 297.11914062 Z " fill="#418DF4" transform="translate(424.1875,130.125)"/>
<path d="M0 0 C1.39496288 -0.00913666 1.39496288 -0.00913666 2.81810683 -0.01845789 C5.92400379 -0.03506278 9.02948965 -0.03031558 12.13542175 -0.0255127 C14.36651026 -0.03285451 16.59759497 -0.04144107 18.82867432 -0.05117798 C24.88249083 -0.07339183 30.93617122 -0.07632467 36.9900229 -0.07443047 C42.04708682 -0.07431075 47.10412192 -0.08287552 52.16117781 -0.09120798 C64.77645057 -0.11154141 77.39163884 -0.11259238 90.00691571 -0.10540086 C100.94764069 -0.09982782 111.88813132 -0.12064336 122.82880155 -0.15376133 C134.0772304 -0.18754513 145.32555036 -0.2021868 156.57404155 -0.1980443 C162.88336418 -0.19597801 169.19245347 -0.2014378 175.50173378 -0.22593689 C181.43704931 -0.24822249 187.37187778 -0.2463105 193.30719566 -0.22600937 C195.48156997 -0.22260249 197.65597718 -0.22767443 199.83030701 -0.24199295 C222.39461373 -0.38029379 222.39461373 -0.38029379 230.44688129 7.14981842 C235.96689485 12.87934555 237.94261456 19.04855544 237.95742798 26.89523315 C237.96550629 27.97886263 237.96550629 27.97886263 237.97374779 29.08438361 C237.9879738 31.48786982 237.98093717 33.8908011 237.97380066 36.29431152 C237.97950709 38.02456604 237.98647241 39.7548168 237.99459839 41.48506165 C238.01251592 46.17317289 238.01136391 50.86109682 238.005656 55.54923201 C238.00256176 59.46811122 238.00865931 63.38695458 238.01469475 67.30582869 C238.0287341 76.55413596 238.02718392 85.80235085 238.01579285 95.05065918 C238.00431524 104.57955695 238.01838265 114.10817315 238.04518932 123.63703382 C238.0673695 131.8292 238.07397838 140.02127794 238.06811291 148.21347201 C238.06474731 153.10142232 238.06713186 157.9891922 238.08436394 162.87711716 C238.09986768 167.47536823 238.09583959 172.07320337 238.07705879 176.67143822 C238.07338223 178.35439794 238.07645409 180.03738871 238.08694458 181.72031975 C238.18157334 198.1625251 238.18157334 198.1625251 233.56974792 205.39440918 C233.21171302 205.96050589 232.85367811 206.52660259 232.48479366 207.10985374 C228.72941412 212.25776264 223.42734676 214.44187624 217.56974792 216.39440918 C214.59179706 216.4993976 211.63684129 216.54660076 208.65847778 216.54830933 C207.73600378 216.55269158 206.81352978 216.55707383 205.86310202 216.56158888 C202.75872349 216.57498918 199.65437335 216.58115856 196.54997253 216.58728027 C194.32932913 216.59518037 192.10868702 216.60344926 189.88804626 216.61206055 C182.58274056 216.63829489 175.2774291 216.65359123 167.97209167 216.66784668 C165.4577897 216.67320609 162.94348776 216.67858359 160.42918587 216.68397903 C149.96949652 216.70561127 139.5098073 216.72449868 129.05010128 216.73560143 C126.33602837 216.73853101 123.62195551 216.74149268 120.90788269 216.74450684 C120.23333275 216.74525289 119.5587828 216.74599894 118.86379195 216.7467676 C107.94546206 216.75941124 97.02729539 216.79262113 86.10904174 216.83430867 C74.89239855 216.87678331 63.67583553 216.89989567 52.45910269 216.90552199 C46.16422635 216.90917454 39.86962657 216.92118594 33.57482719 216.95362473 C27.64944771 216.98372128 21.7245119 216.99001116 15.79907227 216.97824097 C13.62791349 216.97802036 11.45673405 216.98631477 9.28564644 217.00389481 C-13.14335903 217.17557737 -13.14335903 217.17557737 -21.30749607 209.66817284 C-29.65273473 201.18382875 -28.87236734 190.44967787 -28.85017395 179.39685059 C-28.8575206 177.66807 -28.86610857 175.93929432 -28.87583923 174.21052551 C-28.89800094 169.53068131 -28.90098861 164.85101346 -28.89909172 160.17112398 C-28.89897177 156.25725737 -28.90754572 152.34342778 -28.91586924 148.42957151 C-28.935084 139.19223951 -28.93799411 129.95499787 -28.93122864 120.71765137 C-28.92458878 111.20404038 -28.94745445 101.69081719 -28.98454237 92.17728484 C-29.01527938 83.99442208 -29.02659507 75.81168381 -29.02270555 67.62876451 C-29.02064224 62.74801274 -29.02605279 57.86756284 -29.05059814 52.986866 C-29.07292902 48.39510032 -29.070935 43.80396349 -29.05067062 39.21219444 C-29.04727179 37.53287323 -29.05230085 35.85350915 -29.06665421 34.17424583 C-29.14641267 24.14630982 -28.86836787 15.2664622 -21.67484283 7.49892616 C-15.23092671 1.36365523 -8.60081646 -0.05328895 0 0 Z M-17.34352207 17.75704384 C-18.74937285 21.16887761 -18.81090783 23.90127362 -18.81793213 27.59225464 C-18.82331767 28.30620947 -18.8287032 29.02016429 -18.83425194 29.75575411 C-18.84853254 32.14248104 -18.84142776 34.52865342 -18.83430481 36.91540527 C-18.84000839 38.6289057 -18.8469726 40.34240232 -18.85510254 42.05589294 C-18.87305181 46.70679974 -18.87186208 51.35751804 -18.86616015 56.00844908 C-18.86307042 59.89262203 -18.86915846 63.77675867 -18.8751989 67.66092646 C-18.88924874 76.8256988 -18.88767942 85.99037794 -18.876297 95.15515137 C-18.86481896 104.60565894 -18.87888512 114.05588263 -18.90569347 123.50635278 C-18.92785688 131.62371359 -18.93448629 139.74098533 -18.92861706 147.85837424 C-18.92524737 152.70493149 -18.92766318 157.55130682 -18.94486809 162.39783859 C-18.96034502 166.95666117 -18.95637341 171.51506368 -18.93756294 176.07386971 C-18.93387893 177.74476733 -18.93698009 179.41569613 -18.94744873 181.08656502 C-18.96067419 183.37239097 -18.94909911 185.65682943 -18.93145752 187.94259644 C-18.93124824 189.22015997 -18.93103895 190.4977235 -18.93082333 191.81400108 C-18.09047295 197.82472839 -16.09531972 201.13030459 -11.26141357 204.80016327 C-6.96637334 206.93563781 -2.85185755 206.95210431 1.86833191 206.90234375 C2.78408965 206.90858371 3.69984739 206.91482368 4.64335537 206.92125273 C7.70111545 206.93716266 10.75807617 206.92458611 13.81584167 206.9119873 C16.01238977 206.9174093 18.20893423 206.92453239 20.4054718 206.93322754 C26.36410574 206.95145446 32.32246248 206.94439579 38.28110123 206.9317112 C44.51851902 206.92158037 50.75591317 206.93097712 56.99333191 206.93725586 C68.13855029 206.94499798 79.28366698 206.93257152 90.42886102 206.91221851 C100.52699252 206.8943483 110.62494006 206.89745267 120.72306824 206.91589355 C132.45954826 206.93731642 144.19593872 206.94525876 155.93243885 206.9334445 C162.14157337 206.9272101 168.35058127 206.92637263 174.55970764 206.93959045 C180.39730815 206.95114946 186.23456146 206.94312184 192.07212448 206.92001343 C194.21388548 206.91472667 196.35567573 206.91623951 198.49742508 206.92506409 C201.42239849 206.93600416 204.34626119 206.922274 207.27116394 206.90234375 C208.11757163 206.91126664 208.96397932 206.92018952 209.83603573 206.9293828 C215.55701008 206.85383483 218.96814726 205.8879036 223.56974792 202.39440918 C227.30615536 197.91225104 228.07159692 193.77677513 228.08441162 187.95605469 C228.09482991 186.88255917 228.09482991 186.88255917 228.10545868 185.78737688 C228.12364896 183.40671488 228.11348746 181.02705844 228.10319519 178.6463623 C228.11025768 176.93256387 228.11900409 175.21877167 228.12930298 173.50498962 C228.15176822 168.86241763 228.1488642 164.220187 228.13998151 159.57758141 C228.1348651 155.69826912 228.14216938 151.81902062 228.14945358 147.93971491 C228.16644305 138.78734905 228.16289581 129.63514997 228.14616394 120.48278809 C228.12923672 111.04694388 228.14508755 101.61156209 228.17738682 92.17576838 C228.2040905 84.06684529 228.21135682 75.95806609 228.20287174 67.84910345 C228.19794563 63.00924761 228.20014128 58.16967008 228.22065926 53.32984924 C228.23902905 48.77911993 228.23304199 44.22905557 228.20845985 39.67836189 C228.20345638 38.01069024 228.20692974 36.3429678 228.21960831 34.67533684 C228.60570181 24.96304606 228.60570181 24.96304606 225.46780396 16.03515625 C219.51462253 10.61053842 214.00200247 9.9513363 206.27116394 10 C205.3554062 9.9939089 204.43964846 9.98781779 203.49614048 9.98154211 C200.4385177 9.96494039 197.38131264 9.9696839 194.32365417 9.9744873 C192.12710641 9.96714546 189.9305625 9.95855889 187.73402405 9.94882202 C181.77544671 9.92661238 175.81700767 9.92367499 169.85839462 9.92556953 C164.88306354 9.92568923 159.90776177 9.91712555 154.93243885 9.90879202 C142.52515294 9.88846164 130.1179286 9.88740716 117.71063483 9.89459914 C106.94247795 9.90017643 96.17455885 9.87933806 85.40645754 9.84623867 C74.33997643 9.81248696 63.27359263 9.79780944 52.207057 9.8019557 C45.99787413 9.80402439 39.78892822 9.79852462 33.57978821 9.77406311 C27.74215139 9.75182427 21.90501032 9.75365043 16.06737137 9.77399063 C13.9256006 9.77740543 11.78379663 9.77229149 9.64207077 9.75800705 C6.71691171 9.73984406 3.79343985 9.75254208 0.86833191 9.77294922 C-0.40127963 9.75417245 -0.40127963 9.75417245 -1.69653988 9.73501635 C-8.77406836 9.84079241 -12.91561012 12.28915992 -17.34352207 17.75704384 Z " fill="#408CF4" transform="translate(151.4302520751953,69.6055908203125)"/>
<path d="M0 0 C1.77398918 -0.01052147 1.77398918 -0.01052147 3.58381653 -0.02125549 C7.3827398 -0.03866769 11.18150703 -0.04510865 14.98046875 -0.046875 C16.28030701 -0.04754974 17.58014526 -0.04822449 18.91937256 -0.04891968 C38.54028999 -0.03273654 57.71881455 0.4954872 77.16796875 3.203125 C78.42899414 3.36941406 79.69001953 3.53570312 80.98925781 3.70703125 C96.92421945 5.84170733 112.65027184 8.77834923 128.35546875 12.203125 C129.48305603 12.44523209 129.48305603 12.44523209 130.63342285 12.69223022 C151.41373202 17.19059161 169.55642548 24.4424316 182.42578125 42.34375 C189.44356523 53.27181215 196.73363854 68.7126677 194.16796875 82.203125 C192.83984375 83.96484375 192.83984375 83.96484375 191.16796875 85.203125 C188.10546875 85.078125 188.10546875 85.078125 185.16796875 84.203125 C182.79784595 80.6479408 182.75243096 78.49261818 182.35546875 74.265625 C180.62448661 59.40713239 173.28380025 46.62505472 161.7421875 37.04296875 C143.83406036 24.24368516 120.29266568 21.96347328 99.16796875 18.203125 C98.50780762 18.08427948 97.84764648 17.96543396 97.16748047 17.84298706 C85.29638605 15.7208749 73.4228074 14.1536755 61.41796875 13.015625 C60.05798767 12.88580231 60.05798767 12.88580231 58.67053223 12.75335693 C29.16364231 10.01356839 -1.4007621 9.29511793 -30.83203125 13.203125 C-32.02924805 13.3484668 -33.22646484 13.49380859 -34.45996094 13.64355469 C-51.42684414 15.7065197 -68.08017302 18.67159923 -84.70703125 22.640625 C-85.48258362 22.82158722 -86.25813599 23.00254944 -87.05718994 23.18899536 C-103.98650412 27.17765634 -119.43739384 33.47707204 -129.30078125 48.62109375 C-135.05940677 58.33142913 -138.14160487 66.50413517 -138.09031677 77.79437256 C-138.09583033 79.21511987 -138.09583033 79.21511987 -138.10145527 80.66456914 C-138.11141012 83.82819253 -138.10728952 86.9916393 -138.10327148 90.15527344 C-138.10765979 92.42727342 -138.11296233 94.6992718 -138.11911011 96.9712677 C-138.13059996 101.85812107 -138.13606876 106.74493114 -138.1369915 111.63179779 C-138.13893221 119.35395759 -138.15698367 127.07602768 -138.17774963 134.79815674 C-138.20550325 145.61885075 -138.22849635 156.4395376 -138.24536133 167.26025391 C-138.24643401 167.94634048 -138.24750669 168.63242705 -138.24861187 169.33930412 C-138.26044162 177.00030986 -138.27064726 184.6613164 -138.27905273 192.32232666 C-138.28212699 195.10404462 -138.28521571 197.88576256 -138.28833008 200.66748047 C-138.28909542 201.35394117 -138.28986076 202.04040188 -138.29064929 202.74766442 C-138.30372056 214.18479228 -138.32849888 225.62185131 -138.36207348 237.05893922 C-138.38390544 244.74113465 -138.39190263 252.42318386 -138.38968074 260.10540819 C-138.39134228 264.87468977 -138.40535792 269.64387503 -138.42289352 274.41312218 C-138.42851316 276.63073975 -138.4289599 278.84837712 -138.42395592 281.06599617 C-138.41785743 284.08415724 -138.42996809 287.10170456 -138.44676208 290.11981201 C-138.44055027 291.00510771 -138.43433845 291.8904034 -138.4279384 292.80252624 C-138.48899213 298.78915165 -138.48899213 298.78915165 -140.23463589 300.89576268 C-142.17425793 302.48321488 -143.32069727 303.05092294 -145.83203125 303.203125 C-147.92919159 302.27011395 -147.92919159 302.27011395 -149.83203125 300.203125 C-150.23191166 297.10424801 -150.37172943 294.35821371 -150.33996582 291.25630188 C-150.34620578 290.32989417 -150.35244575 289.40348646 -150.3588748 288.44900578 C-150.37488604 285.33073857 -150.36216812 282.21324433 -150.34960938 279.0949707 C-150.35502735 276.86435488 -150.36214818 274.63374264 -150.37084961 272.40313721 C-150.38913802 266.33003154 -150.38198898 260.2571967 -150.36933327 254.18408608 C-150.35921786 247.82406643 -150.36859641 241.46407023 -150.37487793 235.10404968 C-150.38263274 223.72228184 -150.37017083 212.34065139 -150.34984058 200.95891102 C-150.33202488 190.66745154 -150.33502552 180.37617289 -150.35351562 170.0847168 C-150.37499945 158.12147549 -150.38284438 146.15834392 -150.37106657 134.19507664 C-150.36485248 127.86766584 -150.36393698 121.54037913 -150.37721252 115.21297646 C-150.38884774 109.24982585 -150.38060595 103.28701281 -150.3576355 97.32389832 C-150.35238605 95.14560695 -150.35379686 92.96728674 -150.36268616 90.78900719 C-150.44647756 68.15200872 -146.71524496 48.38207919 -130.40234375 31.5703125 C-126.47696367 27.95514483 -122.39905878 24.95495876 -117.83203125 22.203125 C-117.13464844 21.76613281 -116.43726563 21.32914063 -115.71875 20.87890625 C-84.34474063 3.21361146 -35.3921558 0.14143189 0 0 Z " fill="#428EF4" transform="translate(233.83203125,5.796875)"/>
<path d="M0 0 C8.48818975 5.07864799 13.33886483 11.64159448 16.4375 20.9375 C17.57514539 30.41246088 15.34229074 38.6301015 9.67578125 46.33203125 C4.04920316 52.48360445 -1.93113181 55.41291137 -10.18359375 56.34765625 C-19.77753905 56.72445773 -26.68480435 55.40593694 -33.84375 48.84765625 C-40.70071583 41.58076312 -43.14352587 35.03458119 -43.04077148 25.00390625 C-42.72076928 16.08088672 -39.57296779 10.53617725 -33.1875 4.5 C-24.23544903 -3.29642257 -10.81644266 -5.0266597 0 0 Z " fill="#448FF4" transform="translate(361.5625,319.0625)"/>
<path d="M0 0 C6.45844142 4.76627337 10.34115426 12.29722778 11.55078125 20.13671875 C11.88025154 29.75952331 9.43939872 38.15659184 2.81640625 45.28515625 C-4.62953837 51.71648864 -11.979957 53.19441993 -21.5703125 53.09765625 C-28.81063102 52.50541821 -35.09396869 49.59642906 -40.42578125 44.66796875 C-46.33599479 37.55465831 -48.4480326 29.43746341 -48.3671875 20.3828125 C-47.53335589 13.07075065 -44.06232835 6.39205822 -38.7109375 1.3203125 C-26.71732198 -7.53087101 -12.59993317 -7.58003948 0 0 Z " fill="#438EF4" transform="translate(176.9609375,322.1796875)"/>
<path d="M0 0 C1.76562912 1.96314017 3.31638435 3.88276547 4.875 6 C5.84947603 7.28283762 6.82614106 8.56401458 7.8046875 9.84375 C8.3212793 10.52179688 8.83787109 11.19984375 9.37011719 11.8984375 C12.16377606 15.50056685 15.0856578 18.99537596 18 22.5 C23.27318008 28.86529704 28.43435972 35.3050757 33.515625 41.82421875 C36.47733431 45.62308306 39.50437143 49.36865376 42.5390625 53.109375 C45.37730883 56.78239966 45.45355427 59.83858358 45.4140625 64.38671875 C44.72062825 68.76320474 42.3557481 71.25947239 39 74 C35.06995159 76.31772086 31.50803192 76.47452968 27 76 C18.21348142 71.70021431 12.3640115 62.27499248 6.49609375 54.72607422 C2.68363109 49.8315909 -1.23314736 45.03035187 -5.1875 40.25 C-9.45476643 35.09041961 -13.69859442 29.9180766 -17.859375 24.671875 C-19.64710657 22.44047282 -21.45130134 20.22535177 -23.265625 18.015625 C-23.84948975 17.302854 -24.43335449 16.59008301 -25.03491211 15.85571289 C-26.19453411 14.44126391 -27.35669175 13.02888884 -28.52172852 11.61889648 C-29.05725342 10.96477783 -29.59277832 10.31065918 -30.14453125 9.63671875 C-30.86153198 8.76599731 -30.86153198 8.76599731 -31.59301758 7.87768555 C-33.24056429 5.67895541 -34.61974766 3.37368725 -36 1 C-34.91900024 0.96241577 -34.91900024 0.96241577 -33.81616211 0.92407227 C-30.52312536 0.80739924 -27.23032499 0.68499821 -23.9375 0.5625 C-22.80376953 0.52318359 -21.67003906 0.48386719 -20.50195312 0.44335938 C-13.6951595 0.21102929 -13.6951595 0.21102929 -6.94140625 -0.59765625 C-2.42165824 -1.21589535 -2.42165824 -1.21589535 0 0 Z " fill="#FCFDFE" transform="translate(377,420)"/>
<path d="M0 0 C1.01457275 0.15847412 2.02914551 0.31694824 3.07446289 0.48022461 C6.68064455 0.95771455 10.17541362 1.19920689 13.80859375 1.31640625 C15.04931641 1.35830078 16.29003906 1.40019531 17.56835938 1.44335938 C19.48358398 1.50233398 19.48358398 1.50233398 21.4375 1.5625 C22.74138672 1.60568359 24.04527344 1.64886719 25.38867188 1.69335938 C28.59235316 1.79897524 31.79610611 1.90108101 35 2 C31.86209198 6.20710679 28.72682843 10.40932706 25.4375 14.5 C24.43009766 15.75296875 24.43009766 15.75296875 23.40234375 17.03125 C19.86840205 21.39839747 16.32453092 25.75744987 12.77905273 30.11523438 C9.8378136 33.73181236 6.90609852 37.35506287 4 41 C-0.03334497 46.05877166 -4.11619492 51.07690339 -8.20507812 56.09082031 C-11.93905137 60.67421788 -15.61401101 65.29821432 -19.21875 69.984375 C-23.08900211 74.36387081 -26.43168033 76.75770569 -32.3125 77.3125 C-37.73778367 76.8527302 -40.42248935 74.4114569 -44.375 70.875 C-46.85456827 66.48807152 -47.13004451 62.9062181 -46 58 C-43.81734797 53.91886394 -40.98903974 50.51874298 -38 47 C-37.13511953 45.96899919 -36.2705434 44.93774301 -35.40625 43.90625 C-34.03500758 42.27814877 -32.65924031 40.65455151 -31.2734375 39.03881836 C-27.97171014 35.18736692 -24.79951182 31.25588755 -21.6875 27.25 C-16.77798266 20.93030215 -11.7117722 14.74908689 -6.59448242 8.59667969 C-6.02576416 7.9112207 -5.4570459 7.22576172 -4.87109375 6.51953125 C-4.36505615 5.91214111 -3.85901855 5.30475098 -3.33764648 4.67895508 C-2.14386251 3.1805699 -1.06269299 1.59403949 0 0 Z " fill="#FCFDFE" transform="translate(136,419)"/>
<path d="M0 0 C5.0971233 2.31687423 8.76833196 6.46303282 12 11 C13.66303139 15.98909418 14.08473932 21.29750291 12.09375 26.2578125 C9.11268849 31.28357645 5.28357581 35.35821209 0 38 C-5.80241278 38.48887732 -11.15748286 38.85545438 -16.5 36.375 C-25.51590504 27.80989021 -25.51590504 27.80989021 -26.30078125 21.6328125 C-26.32559098 16.32352966 -26.17330037 12.46245364 -23 8 C-15.45128016 0.55933954 -10.70103486 -0.91461836 0 0 Z " fill="#FCFDFE" transform="translate(165,327)"/>
<path d="M0 0 C5.22608053 3.03069834 9.0384559 7.46151743 10.625 13.375 C11.33130984 19.49635193 9.78248587 24.19672318 6.625 29.375 C2.95130323 33.53181306 -1.487281 35.91996549 -6.953125 36.78125 C-13.2843394 37.00339787 -17.42251915 36.096867 -22.4921875 32.19921875 C-27.11359749 27.72162857 -28.58514412 23.24383254 -28.9375 16.875 C-28.65579914 10.31409611 -26.41571328 6.19557114 -21.6484375 1.7734375 C-15.15285458 -3.01137461 -7.29832217 -3.26358935 0 0 Z " fill="#FCFDFE" transform="translate(357.375,328.625)"/>
<path d="M0 0 C1.07853745 0.00607269 1.07853745 0.00607269 2.17886353 0.01226807 C2.9367215 0.00876343 3.69457947 0.00525879 4.47540283 0.00164795 C6.98732591 -0.00717417 9.49896869 -0.00131861 12.01089478 0.00543213 C13.75202488 0.00408561 15.49315463 0.0021452 17.23428345 -0.00036621 C20.88609389 -0.00331812 24.53780661 0.0009823 28.18960571 0.01031494 C32.87746459 0.02170954 37.56509448 0.01515042 42.25294495 0.00317001 C45.84908788 -0.00404679 49.44517625 -0.00176149 53.0413208 0.0034256 C54.77014187 0.00476259 56.49896786 0.00311264 58.2277832 -0.00153351 C60.64129818 -0.00659584 63.05443901 0.00110714 65.46792603 0.01226807 C66.18695099 0.0082196 66.90597595 0.00417114 67.64678955 0 C72.59486581 0.04252817 72.59486581 0.04252817 74.82339478 2.27105713 C75.17013543 4.97563425 75.26723231 6.58941861 73.75820923 8.9069519 C70.86270952 10.94837054 67.96912449 10.68907546 64.55386353 10.65924072 C63.81697296 10.66449768 63.0800824 10.66975464 62.32086182 10.6751709 C59.88399079 10.68837947 57.44777249 10.67963015 55.01089478 10.66949463 C53.31842931 10.67151513 51.62596468 10.67442636 49.9335022 10.67819214 C46.38597324 10.68261664 42.83867085 10.67618048 39.29116821 10.66217041 C34.74121568 10.64507833 30.19179401 10.65491886 25.64186096 10.6728878 C22.14688102 10.68372231 18.65202717 10.68028086 15.15704346 10.67250443 C13.4792881 10.67050149 11.80152134 10.67296498 10.1237793 10.67994308 C7.77985252 10.68755224 5.43678845 10.67596178 3.09292603 10.65924072 C2.05019028 10.66834976 2.05019028 10.66834976 0.98638916 10.67764282 C-1.8649118 10.63991116 -3.74389858 10.57612896 -6.11141968 8.9069519 C-7.62044276 6.58941861 -7.52334588 4.97563425 -7.17660522 2.27105713 C-4.71954662 -0.18600147 -3.35359113 0.02882374 0 0 Z " fill="#448FF4" transform="translate(222.17660522460938,343.72894287109375)"/>
<path d="M0 0 C2 2 2 2 2.40591431 4.3036499 C1.83864568 8.07182165 0.17964634 9.4551006 -2.49462891 12.14160156 C-3.21169006 12.87180511 -3.21169006 12.87180511 -3.9432373 13.61676025 C-5.52533815 15.22084834 -7.12501051 16.80597417 -8.7265625 18.390625 C-9.83393399 19.50136535 -10.9405624 20.61284697 -12.04647827 21.72503662 C-14.36717725 24.05310652 -16.69667675 26.37189541 -19.03271484 28.68457031 C-22.02242253 31.64582395 -24.98916443 34.62891423 -27.94964027 37.61935806 C-30.23119456 39.91900743 -32.52455877 42.20658065 -34.8216362 44.49071503 C-35.92009708 45.58584631 -37.0148719 46.68468803 -38.10582352 47.78730011 C-39.63508648 49.32930391 -41.17954388 50.85430409 -42.72900391 52.37597656 C-43.60392487 53.24691956 -44.47884583 54.11786255 -45.38027954 55.01519775 C-48.36574825 57.27710512 -50.27446756 57.88539326 -54 58 C-56 56 -56 56 -56.40591431 53.20443726 C-55.87640881 49.02432559 -54.45858922 47.69842316 -51.50537109 44.72900391 C-50.78830994 43.99617188 -50.78830994 43.99617188 -50.0567627 43.24853516 C-48.47705381 41.64248147 -46.87647854 40.05930329 -45.2734375 38.4765625 C-44.16591938 37.36500121 -43.05929311 36.25255065 -41.95352173 35.13925171 C-39.63440741 32.81129834 -37.3048055 30.49452531 -34.96728516 28.18505859 C-31.97403108 25.22598988 -29.00852459 22.24079676 -26.05035973 19.24669838 C-23.77060864 16.94525036 -21.47673941 14.65830437 -19.1783638 12.37546921 C-18.07915504 11.28025869 -16.98437423 10.1805852 -15.89417648 9.07640457 C-14.36718182 7.53414358 -12.82221813 6.01246795 -11.27099609 4.49462891 C-10.39607513 3.62448151 -9.52115417 2.75433411 -8.61972046 1.8578186 C-5.45631236 -0.38556519 -3.79989046 -0.55174219 0 0 Z " fill="#418DF4" transform="translate(220,119)"/>
<path d="M0 0 C2 3 2 3 1.97119141 5.30371094 C0.62882018 9.03049521 -1.78790522 11.39872709 -4.5390625 14.140625 C-5.09814301 14.70827576 -5.65722351 15.27592651 -6.23324585 15.86077881 C-7.41682643 17.05582288 -8.60565352 18.24569055 -9.79931641 19.43066406 C-11.61566834 21.24070078 -13.40376867 23.07571529 -15.19140625 24.9140625 C-16.34733381 26.07453709 -17.50483652 27.23344526 -18.6640625 28.390625 C-19.19351471 28.9384967 -19.72296692 29.48636841 -20.26846313 30.05084229 C-24.01145117 33.70360181 -26.80458026 34.74991373 -32 35 C-34.20233822 31.69649266 -34.67652816 30.83157794 -34 27 C-32.19061245 24.74229851 -30.45415219 22.84722912 -28.3828125 20.859375 C-27.52428177 20.00789886 -27.52428177 20.00789886 -26.64840698 19.13922119 C-24.81866049 17.3308084 -22.9720007 15.54076882 -21.125 13.75 C-19.88823751 12.52974494 -18.65254699 11.3084024 -17.41796875 10.0859375 C-6.61836967 -0.55153081 -6.61836967 -0.55153081 0 0 Z " fill="#4891F4" transform="translate(193,114)"/>
</svg>
